<?xml version="1.0" encoding="iso-8859-1"?>
<!-- Uploaded to: SVG Repo, www.svgrepo.com, Generator: SVG Repo Mixer Tools -->
<!DOCTYPE svg PUBLIC "-//W3C//DTD SVG 1.1//EN" "http://www.w3.org/Graphics/SVG/1.1/DTD/svg11.dtd">
<svg width="18" height="18" viewBox="0 0 20 20" fill="none" version="1.1" id="Capa_1" xmlns="http://www.w3.org/2000/svg" xmlns:xlink="http://www.w3.org/1999/xlink" 
	 viewBox="0 0 297 297" xml:space="preserve">
<g>
	<path d="M109.597,211.296c8.821,0,15.999-7.177,15.999-15.998c0-8.821-7.178-15.999-15.999-15.999s-15.998,7.178-15.998,15.999
		C93.599,204.119,100.775,211.296,109.597,211.296z M109.597,191.398c2.15,0,3.9,1.75,3.9,3.9c0,2.15-1.75,3.899-3.9,3.899
		c-2.15,0-3.9-1.749-3.9-3.899C105.696,193.148,107.446,191.398,109.597,191.398z"/>
	<path d="M186.895,211.296c8.821,0,15.998-7.177,15.998-15.998c0-8.821-7.177-15.999-15.998-15.999
		c-8.821,0-15.999,7.178-15.999,15.999C170.896,204.119,178.074,211.296,186.895,211.296z M186.895,191.398
		c2.149,0,3.899,1.75,3.899,3.9c0,2.15-1.75,3.899-3.899,3.899c-2.15,0-3.9-1.749-3.9-3.899
		C182.995,193.148,184.745,191.398,186.895,191.398z"/>
	<path d="M294.404,275.71l-40.174-47.674c10.043-11.89,14.943-27.071,13.842-43.086l-8.409-122.084
		C257.275,28.201,227.066,0,192.319,0h-88.146C69.428,0,39.217,28.201,36.829,62.865l-8.408,122.086
		c-1.112,16.147,3.888,31.446,14.102,43.379L2.597,275.709c-3.541,4.202-3.005,10.479,1.196,14.019
		c1.867,1.574,4.143,2.342,6.407,2.342c2.831,0,5.645-1.203,7.612-3.538l39.988-47.454c3.422,1.987,7.035,3.623,10.803,4.892
		l-18.848,36.516c-2.52,4.883-0.605,10.885,4.277,13.404c1.459,0.754,3.019,1.11,4.556,1.11c3.604,0,7.082-1.965,8.849-5.388
		l5.634-10.914h149.843l5.633,10.914c1.767,3.423,5.245,5.388,8.849,5.388c1.537,0,3.097-0.356,4.556-1.11
		c4.883-2.52,6.798-8.521,4.277-13.404l-18.771-36.369c4.049-1.328,7.922-3.084,11.573-5.238l40.156,47.653
		c1.969,2.336,4.781,3.539,7.613,3.539c2.264,0,4.541-0.769,6.406-2.341C297.408,286.189,297.944,279.911,294.404,275.71z
		 M192.319,19.898c9.731,0,18.951,3.145,26.645,8.457l-1.061,4.245H78.59l-1.062-4.245c7.693-5.312,16.914-8.457,26.645-8.457
		H192.319z M212.929,52.499l-23.551,94.2h-82.264l-23.55-94.2H212.929z M48.272,186.317l8.408-122.084
		c0.432-6.269,2.161-12.232,4.896-17.644l28.117,112.473c1.107,4.429,5.086,7.536,9.652,7.536h97.799
		c4.565,0,8.546-3.107,9.652-7.536L234.916,46.59c2.735,5.411,4.464,11.374,4.894,17.644l8.41,122.084
		c0.789,11.478-2.947,22.268-10.523,30.382c-7.575,8.115-18.082,12.584-29.586,12.584H88.382c-11.504,0-22.011-4.469-29.587-12.584
		C51.22,208.585,47.482,197.795,48.272,186.317z M83.341,260.8l5.997-11.617h117.309l5.996,11.617H83.341z"/>
</g>
</svg>